<?xml version="1.0" encoding="utf-8"?>
<!-- Generator: Adobe Illustrator 25.4.1, SVG Export Plug-In . SVG Version: 6.00 Build 0)  -->
<svg version="1.1" id="图层_1" xmlns="http://www.w3.org/2000/svg" xmlns:xlink="http://www.w3.org/1999/xlink" x="0px" y="0px"
	 viewBox="0 0 40 40" style="enable-background:new 0 0 40 40;" xml:space="preserve">
<style type="text/css">
	.st0{fill:#E83828;}
</style>
<path class="st0" d="M10,24.3l-2,0.4l-3.5,5.4l1.3,1.3l5.4-3.5l0.4-2l3.3-3.3l-1.6-1.6L10,24.3z M17.6,23.5l9.9-9.9
	c1.4-1.4,1.4-3.6,0-5c-1.4-1.4-3.6-1.4-5,0l-9.9,9.9L17.6,23.5z M25.7,11.5c0.3-0.3,0.7-0.3,0.9,0c0.3,0.3,0.3,0.7,0,0.9l-7.7,7.7
	c-0.3,0.3-0.7,0.3-0.9,0c-0.3-0.3-0.3-0.7,0-0.9L25.7,11.5L25.7,11.5z M23.8,9.6c0.3-0.3,0.7-0.3,0.9,0c0.3,0.3,0.3,0.7,0,0.9
	L17,18.2c-0.3,0.3-0.7,0.3-0.9,0c-0.3-0.3-0.3-0.7,0-0.9L23.8,9.6z"/>
<path class="st0" d="M32.1,34c-2.1-2.6-6.6-7.7-8.7-10.2l-2.2-2.6l1.2-1.1l1.2-1.1l2.4,2.4c2.4,2.3,7.1,7.2,9.5,9.5
	c0.6,0.6,0.9,1.3,0.9,2.1c0,1.3-1,2.2-2.3,2.1C33.4,35,32.6,34.6,32.1,34L32.1,34z M5.4,13.9C5.7,13.6,6,13.3,6.3,13
	c0.3-0.3,0.7-0.6,1-0.9C7.4,12,7.5,12,7.7,12c0.1,0,0.8,0,1,0.1l0.1,0c0.7,0,1.1-0.3,1.1-1l0-0.2c0-0.2,0-0.3,0-0.5
	c0-0.2,0.1-0.4,0.3-0.6c1-1,2.2-2.1,3.4-3.2C14,6,14.6,5.6,15.2,5.3c1.5-0.7,3-0.9,4.4-0.6c0.7,0.1,1.4,0.4,2.1,0.7
	c0.4,0.2,0.2,0.7-0.2,0.8c-0.8,0-1.5,0.2-2.1,0.5c-1.5,0.7-2.4,2-2.4,3.6c0,0.7,0.2,1.5,0.5,2.1c-0.4,0.4-0.9,0.8-1.3,1.3
	c-0.4,0.4-0.7,0.7-1.1,1c-0.4-0.4-0.5-0.5-0.6-0.6c-0.5-0.3-1.1-0.4-1.6-0.1c-0.2,0.1-0.3,0.2-0.5,0.3c-0.7,0.6-0.8,1.4-0.4,2.2
	c-0.2,0.1-0.3,0.3-0.5,0.4c-0.6,0.6-1.3,1.1-1.9,1.7c-0.1,0.1-0.2,0.1-0.2,0.1c0,0-0.1,0-0.3-0.1l-3-3.3l-0.8-0.9
	C5.2,14.3,5.2,14.1,5.4,13.9z"/>
</svg>
